<svg xmlns="http://www.w3.org/2000/svg" width="34.286" height="30" viewBox="0 0 34.286 30">
  <g id="组_2219" data-name="组 2219" transform="translate(-313 -289)">
    <g id="comment-exclamation" transform="translate(313 289)">
      <path id="路径_404" data-name="路径 404" d="M17.143,32C7.674,32,0,38.234,0,45.929a12.363,12.363,0,0,0,3.817,8.752A17.036,17.036,0,0,1,.147,61.1a.536.536,0,0,0-.1.583A.524.524,0,0,0,.536,62a15.314,15.314,0,0,0,9.415-3.442,20.424,20.424,0,0,0,7.192,1.3c9.469,0,17.143-6.234,17.143-13.929S26.612,32,17.143,32Zm0,22.5a2.143,2.143,0,1,1,2.143-2.143A2.143,2.143,0,0,1,17.143,54.5ZM19.7,38.536l-.857,8.571a1.071,1.071,0,0,1-1.065.964H16.507a1.071,1.071,0,0,1-1.065-.964l-.857-8.571a1.075,1.075,0,0,1,1.065-1.179h2.987A1.071,1.071,0,0,1,19.7,38.536Z" transform="translate(0 -32)" fill="#63c0b5" opacity="0.4"/>
      <path id="路径_405" data-name="路径 405" d="M220.289,124.857A2.143,2.143,0,1,0,222.432,127,2.143,2.143,0,0,0,220.289,124.857ZM221.782,112H218.8a1.075,1.075,0,0,0-1.065,1.179l.857,8.571a1.071,1.071,0,0,0,1.065.964h1.272a1.071,1.071,0,0,0,1.065-.964l.857-8.571A1.071,1.071,0,0,0,221.782,112Z" transform="translate(-203.146 -106.643)" fill="#63c0b5"/>
    </g>
    <g id="comment-exclamation-2" data-name="comment-exclamation" transform="translate(313 289)">
      <g id="路径_404-2" data-name="路径 404" transform="translate(0 -32)" fill="none" opacity="0.4">
        <path d="M17.143,32C7.674,32,0,38.234,0,45.929a12.363,12.363,0,0,0,3.817,8.752A17.036,17.036,0,0,1,.147,61.1a.536.536,0,0,0-.1.583A.524.524,0,0,0,.536,62a15.314,15.314,0,0,0,9.415-3.442,20.424,20.424,0,0,0,7.192,1.3c9.469,0,17.143-6.234,17.143-13.929S26.612,32,17.143,32Z" stroke="none"/>
        <path d="M 17.14284133911133 33 C 8.24165153503418 33 1 38.79972839355469 1 45.92855834960938 C 1 47.41083908081055 1.312240600585938 48.86376953125 1.928062438964844 50.24699783325195 C 2.527580261230469 51.5936164855957 3.401330947875977 52.8477897644043 4.525060653686523 53.97465896606445 L 4.923330307006836 54.37404632568359 L 4.787551879882813 54.9214973449707 C 4.154819488525391 57.47269439697266 2.531398773193359 59.77117156982422 1.579631805419922 60.95689010620117 C 5.195077896118164 60.65832901000977 7.946548461914063 58.87636566162109 9.327732086181641 57.77588653564453 L 9.771060943603516 57.42267990112305 L 10.30183029174805 57.62160873413086 C 12.48926162719727 58.44143676757813 14.78282165527344 58.85712814331055 17.11881065368652 58.85712814331055 L 17.14284133911133 58.85711669921875 C 26.04403114318848 58.85711669921875 33.28568267822266 53.05738830566406 33.28568267822266 45.92855834960938 C 33.28568267822266 38.79972839355469 26.04403114318848 33 17.14284133911133 33 M 17.14284133911133 32 C 26.61158180236816 32 34.28568267822266 38.23436737060547 34.28568267822266 45.92855834960938 C 34.28568267822266 53.62273788452148 26.61158180236816 59.85711669921875 17.14284133911133 59.85711669921875 C 17.13474655151367 59.85712814331055 17.12689971923828 59.85713195800781 17.11880683898926 59.85713195800781 C 14.67111015319824 59.85713195800781 12.24302101135254 59.41707611083984 9.950881958007813 58.55799865722656 C 8.303560256958008 59.87050628662109 4.975440979003906 61.99996948242188 0.5357093811035156 61.99996948242188 C 0.5339012145996094 61.99998474121094 0.5321197509765625 61.99999618530273 0.5303115844726563 61.99999618530273 C 0.3193321228027344 61.99999618530273 0.1286430358886719 61.87340927124023 0.04687118530273438 61.67853927612305 C -0.03952789306640625 61.48177719116211 2.288818359375e-05 61.25241851806641 0.1473197937011719 61.095947265625 C 0.1808013916015625 61.06246948242188 2.979911804199219 58.05577850341797 3.816961288452148 54.68077850341797 C 1.433032989501953 52.29015731811523 0 49.24997711181641 0 45.92855834960938 C 0 38.23436737060547 7.674100875854492 32 17.14284133911133 32 Z" stroke="none" fill="#646464"/>
      </g>
      <g id="路径_405-2" data-name="路径 405" transform="translate(-203.146 -106.643)" fill="none" opacity="0.4">
        <path d="M220.289,124.857A2.143,2.143,0,1,0,222.432,127,2.143,2.143,0,0,0,220.289,124.857ZM221.782,112H218.8a1.075,1.075,0,0,0-1.065,1.179l.857,8.571a1.071,1.071,0,0,0,1.065.964h1.272a1.071,1.071,0,0,0,1.065-.964l.857-8.571A1.071,1.071,0,0,0,221.782,112Z" stroke="none"/>
        <path d="M 220.2888793945313 128.1428375244141 C 220.9190368652344 128.1428375244141 221.4317169189453 127.6301574707031 221.4317169189453 126.9999923706055 C 221.4317169189453 126.3698120117188 220.9190368652344 125.8571166992188 220.2888793945313 125.8571166992188 C 219.6587066650391 125.8571166992188 219.1460266113281 126.3698120117188 219.1460266113281 126.9999923706055 C 219.1460266113281 127.6301574707031 219.6587066650391 128.1428375244141 220.2888793945313 128.1428375244141 M 220.9238128662109 121.7142715454102 C 220.9606018066406 121.714225769043 220.9911041259766 121.6865921020508 220.9947357177734 121.6504669189453 L 221.8519287109375 113.0785217285156 C 221.8539428710938 113.0584869384766 221.8473663330078 113.0384521484375 221.8339538574219 113.0235977172852 C 221.8204193115234 113.0086288452148 221.8011169433594 113.0000152587891 221.7821807861328 113 L 218.7999877929688 113 C 218.7791900634766 113.0003509521484 218.7592926025391 113.009391784668 218.7453765869141 113.024787902832 C 218.7311859130859 113.0405120849609 218.7241973876953 113.0616607666016 218.7258758544922 113.0790557861328 L 219.5829467773438 121.6499404907227 C 219.5866394042969 121.6865692138672 219.6171569824219 121.714225769043 219.6527252197266 121.7142715454102 L 220.9238128662109 121.7142715454102 M 220.2888793945313 129.1428375244141 C 219.1054077148438 129.1428375244141 218.1460266113281 128.1834259033203 218.1460266113281 126.9999923706055 C 218.1460266113281 125.8164978027344 219.1054077148438 124.8571166992188 220.2888793945313 124.8571166992188 C 221.4723358154297 124.8571166992188 222.4317169189453 125.8164978027344 222.4317169189453 126.9999923706055 C 222.4317169189453 128.1834259033203 221.4723358154297 129.1428375244141 220.2888793945313 129.1428375244141 Z M 220.925048828125 122.7142715454102 L 219.6527252197266 122.7142715454102 C 219.1029815673828 122.7135925292969 218.6429595947266 122.2969665527344 218.5879669189453 121.7499694824219 L 217.7308349609375 113.1785583496094 C 217.701904296875 112.8777770996094 217.80078125 112.5786819458008 218.0033111572266 112.3544692993164 C 218.2059020996094 112.1302719116211 218.4934387207031 112.0016021728516 218.7955627441406 112 L 221.7821807861328 112 C 222.0847930908203 112.000358581543 222.373046875 112.128662109375 222.5759124755859 112.353157043457 C 222.7787322998047 112.5776596069336 222.8771820068359 112.8775024414063 222.8469085693359 113.1785583496094 L 221.9897766113281 121.7499694824219 C 221.934814453125 122.2969665527344 221.4747619628906 122.7135925292969 220.925048828125 122.7142715454102 Z" stroke="none" fill="#646464"/>
      </g>
    </g>
  </g>
</svg>
