<svg xmlns="http://www.w3.org/2000/svg" width="26.25" height="30" viewBox="0 0 26.25 30">
  <g id="组_2220" data-name="组 2220" transform="translate(-246 -289)">
    <g id="calendar-edit" transform="translate(246 289)">
      <path id="路径_406" data-name="路径 406" d="M0,11.25V27.188A2.813,2.813,0,0,0,2.813,30H23.438a2.813,2.813,0,0,0,2.813-2.812V11.25Zm16.08,9.584L10.513,26.4l-2.826.318a.6.6,0,0,1-.656-.527.582.582,0,0,1,0-.128l.316-2.824,5.566-5.566a.3.3,0,0,1,.42,0l2.742,2.742a.3.3,0,0,1,0,.419Zm3.262-3.262L17.818,19.1a.3.3,0,0,1-.42,0l-2.742-2.742a.3.3,0,0,1,0-.42l1.523-1.523a1.185,1.185,0,0,1,1.676,0L19.344,15.9a1.185,1.185,0,0,1,0,1.674ZM6.563,7.5H8.438a.938.938,0,0,0,.938-.937V.938A.938.938,0,0,0,8.438,0H6.563a.938.938,0,0,0-.937.938V6.563A.938.938,0,0,0,6.563,7.5Zm11.25,0h1.875a.938.938,0,0,0,.938-.937V.938A.938.938,0,0,0,19.688,0H17.813a.938.938,0,0,0-.937.938V6.563A.938.938,0,0,0,17.813,7.5Z" transform="translate(0 0)" fill="#b781b5" opacity="0.4"/>
      <path id="路径_407" data-name="路径 407" d="M19.342,76.146l-1.488-1.488a1.185,1.185,0,0,0-1.676,0l-1.523,1.523a.3.3,0,0,0,0,.42L17.4,79.344a.3.3,0,0,0,.42,0l1.523-1.523a1.185,1.185,0,0,0,0-1.676Zm-3.264,4.518-2.742-2.742a.3.3,0,0,0-.42,0L7.349,83.488l-.318,2.824a.6.6,0,0,0,.527.656.581.581,0,0,0,.128,0l2.824-.316,5.566-5.566a.3.3,0,0,0,0-.42ZM23.438,64H20.625v2.813a.938.938,0,0,1-.938.938H17.813a.938.938,0,0,1-.937-.937V64h-7.5v2.813a.938.938,0,0,1-.937.938H6.563a.938.938,0,0,1-.937-.937V64H2.813A2.813,2.813,0,0,0,0,66.813V71.5H26.25V66.813A2.813,2.813,0,0,0,23.438,64Z" transform="translate(0 -60.25)" fill="#b781b5"/>
    </g>
    <g id="calendar-edit-2" data-name="calendar-edit" transform="translate(246 289)">
      <g id="路径_406-2" data-name="路径 406" transform="translate(0 0)" fill="none" opacity="0.4">
        <path d="M0,11.25V27.188A2.813,2.813,0,0,0,2.813,30H23.438a2.813,2.813,0,0,0,2.813-2.812V11.25ZM6.563,7.5H8.438a.938.938,0,0,0,.938-.937V.938A.938.938,0,0,0,8.438,0H6.563a.938.938,0,0,0-.937.938V6.563A.938.938,0,0,0,6.563,7.5Zm11.25,0h1.875a.938.938,0,0,0,.938-.937V.938A.938.938,0,0,0,19.688,0H17.813a.938.938,0,0,0-.937.938V6.563A.938.938,0,0,0,17.813,7.5Z" stroke="none"/>
        <path d="M 6.625001907348633 1.000001907348633 L 6.625001907348633 6.500001907348633 L 8.375001907348633 6.500001907348633 L 8.375001907348633 1.000001907348633 L 6.625001907348633 1.000001907348633 M 17.87500190734863 1.000001907348633 L 17.87500190734863 6.500001907348633 L 19.62500190734863 6.500001907348633 L 19.62500190734863 1.000001907348633 L 17.87500190734863 1.000001907348633 M 1.000001907348633 12.25000190734863 L 1.000001907348633 27.1875 C 1.000001907348633 28.18692016601563 1.813081741333008 29 2.812501907348633 29 L 23.43750190734863 29 C 24.43692207336426 29 25.25000190734863 28.18692016601563 25.25000190734863 27.1875 L 25.25000190734863 12.25000190734863 L 1.000001907348633 12.25000190734863 M 6.562501907348633 1.9073486328125e-06 L 8.437501907348633 1.9073486328125e-06 C 8.95526123046875 1.9073486328125e-06 9.375001907348633 0.4197311401367188 9.375001907348633 0.9375019073486328 L 9.375001907348633 6.562501907348633 C 9.375001907348633 7.080270767211914 8.95526123046875 7.500001907348633 8.437501907348633 7.500001907348633 L 6.562501907348633 7.500001907348633 C 6.044731140136719 7.500001907348633 5.625001907348633 7.080270767211914 5.625001907348633 6.562501907348633 L 5.625001907348633 0.9375019073486328 C 5.625001907348633 0.4197311401367188 6.044731140136719 1.9073486328125e-06 6.562501907348633 1.9073486328125e-06 Z M 17.81250190734863 1.9073486328125e-06 L 19.68750190734863 1.9073486328125e-06 C 20.20526123046875 1.9073486328125e-06 20.62500190734863 0.4197311401367188 20.62500190734863 0.9375019073486328 L 20.62500190734863 6.562501907348633 C 20.62500190734863 7.080270767211914 20.20526123046875 7.500001907348633 19.68750190734863 7.500001907348633 L 17.81250190734863 7.500001907348633 C 17.29473114013672 7.500001907348633 16.87500190734863 7.080270767211914 16.87500190734863 6.562501907348633 L 16.87500190734863 0.9375019073486328 C 16.87500190734863 0.4197311401367188 17.29473114013672 1.9073486328125e-06 17.81250190734863 1.9073486328125e-06 Z M 1.9073486328125e-06 11.25000190734863 L 26.25000190734863 11.25000190734863 L 26.25000190734863 27.1875 C 26.25000190734863 28.74080085754395 24.99080276489258 30 23.43750190734863 30 L 2.812501907348633 30 C 1.259201049804688 30 1.9073486328125e-06 28.74080085754395 1.9073486328125e-06 27.1875 L 1.9073486328125e-06 11.25000190734863 Z" stroke="none" fill="#646464"/>
      </g>
      <g id="路径_407-2" data-name="路径 407" transform="translate(0 -60.25)" fill="none" opacity="0.4">
        <path d="M19.342,76.146l-1.488-1.488a1.185,1.185,0,0,0-1.676,0l-1.523,1.523a.3.3,0,0,0,0,.42L17.4,79.344a.3.3,0,0,0,.42,0l1.523-1.523a1.185,1.185,0,0,0,0-1.676Zm-3.264,4.518-2.742-2.742a.3.3,0,0,0-.42,0L7.349,83.488l-.318,2.824a.6.6,0,0,0,.527.656.581.581,0,0,0,.128,0l2.824-.316,5.566-5.566a.3.3,0,0,0,0-.42ZM23.438,64H20.625v2.813a.938.938,0,0,1-.938.938H17.813a.938.938,0,0,1-.937-.937V64h-7.5v2.813a.938.938,0,0,1-.937.938H6.563a.938.938,0,0,1-.937-.937V64H2.813A2.813,2.813,0,0,0,0,66.813V71.5H26.25V66.813A2.813,2.813,0,0,0,23.438,64Z" stroke="none"/>
        <path d="M 8.081991195678711 85.91816711425781 L 10.05110359191895 85.69756317138672 L 14.8740930557251 80.87458801269531 L 14.81200790405273 80.81217193603516 L 13.12587738037109 79.12605285644531 L 8.303947448730469 83.94797515869141 L 8.081991195678711 85.91816711425781 M 17.60654449462891 78.13980865478516 L 18.63304138183594 77.11331939697266 C 18.67779159545898 77.06858062744141 18.68719100952148 77.01755523681641 18.68719100952148 76.98262786865234 C 18.68719100952148 76.94802093505859 18.67795944213867 76.89759826660156 18.63423538208008 76.8531494140625 L 17.14628219604492 75.36518859863281 C 17.1015625 75.32045745849609 17.0505428314209 75.31106567382813 17.01562118530273 75.31106567382813 C 16.9807014465332 75.31106567382813 16.9296817779541 75.32045745849609 16.88484191894531 75.36531829833984 L 15.8584508895874 76.39170837402344 L 17.60654449462891 78.13980865478516 M 25.25000190734863 70.5 L 25.25000190734863 66.8125 C 25.25000190734863 65.81307983398438 24.43692207336426 65 23.43750190734863 65 L 21.62500190734863 65 L 21.62500190734863 66.8125 C 21.62500190734863 67.88083648681641 20.7558422088623 68.75 19.68750190734863 68.75 L 17.81250190734863 68.75 C 16.74416160583496 68.75 15.87500190734863 67.88083648681641 15.87500190734863 66.8125 L 15.87500190734863 65 L 10.37500190734863 65 L 10.37500190734863 66.8125 C 10.37500190734863 67.88083648681641 9.505842208862305 68.75 8.437501907348633 68.75 L 6.562501907348633 68.75 C 5.494162082672119 68.75 4.625001907348633 67.88083648681641 4.625001907348633 66.8125 L 4.625001907348633 65 L 2.812501907348633 65 C 1.813081860542297 65 1.000001907348633 65.81307983398438 1.000001907348633 66.8125 L 1.000001907348633 70.5 L 25.25000190734863 70.5 M 7.622461795806885 86.97227478027344 C 7.601139545440674 86.97227478027344 7.579816818237305 86.97109985351563 7.558591842651367 86.96875 C 7.231921672821045 86.93284606933594 6.996001720428467 86.63924407958984 7.031251907348633 86.31251525878906 L 7.349411964416504 83.48828887939453 L 12.91582202911377 77.92189025878906 C 12.97382736206055 77.86388397216797 13.04985237121582 77.83487701416016 13.12587738037109 77.83487701416016 C 13.20190143585205 77.83487701416016 13.27792644500732 77.86388397216797 13.3359317779541 77.92189025878906 L 16.07812118530273 80.66407012939453 L 16.07695198059082 80.66581726074219 C 16.19296264648438 80.78184509277344 16.19296264648438 80.96994018554688 16.07695198059082 81.08594512939453 L 10.51054191589355 86.65234375 L 7.686331748962402 86.96875 C 7.665106773376465 86.97109985351563 7.643784523010254 86.97227478027344 7.622461795806885 86.97227478027344 Z M 17.60654640197754 79.43096923828125 C 17.53051948547363 79.43096923828125 17.45449256896973 79.40196990966797 17.39648246765137 79.34396362304688 L 14.65429210662842 76.60176086425781 C 14.53828144073486 76.48574829101563 14.53828144073486 76.29766082763672 14.65429210662842 76.18164825439453 L 16.17773246765137 74.65821075439453 C 16.40908622741699 74.42678070068359 16.71235466003418 74.31106567382813 17.01562118530273 74.31106567382813 C 17.31888961791992 74.31106567382813 17.62215614318848 74.42678070068359 17.85351181030273 74.65821075439453 L 19.3417911529541 76.14649963378906 L 19.34004211425781 76.14472961425781 C 19.80290222167969 76.60746002197266 19.80290222167969 77.35781097412109 19.34004211425781 77.82052612304688 L 17.81660270690918 79.34396362304688 C 17.75859642028809 79.40196990966797 17.68257141113281 79.43096923828125 17.60654640197754 79.43096923828125 Z M 26.25000190734863 71.5 L 1.9073486328125e-06 71.5 L 1.9073486328125e-06 66.8125 C 1.9073486328125e-06 65.25920867919922 1.259201884269714 63.99999618530273 2.812501907348633 63.99999618530273 L 5.625001907348633 63.99999618530273 L 5.625001907348633 66.8125 C 5.625001907348633 67.33025360107422 6.044732093811035 67.75 6.562501907348633 67.75 L 8.437501907348633 67.75 C 8.955262184143066 67.75 9.375001907348633 67.33025360107422 9.375001907348633 66.8125 L 9.375001907348633 63.99999618530273 L 16.87500190734863 63.99999618530273 L 16.87500190734863 66.8125 C 16.87500190734863 67.33025360107422 17.29473114013672 67.75 17.81250190734863 67.75 L 19.68750190734863 67.75 C 20.20527267456055 67.75 20.62500190734863 67.33025360107422 20.62500190734863 66.8125 L 20.62500190734863 63.99999618530273 L 23.43750190734863 63.99999618530273 C 24.99080276489258 63.99999618530273 26.25000190734863 65.25920867919922 26.25000190734863 66.8125 L 26.25000190734863 71.5 Z" stroke="none" fill="#646464"/>
      </g>
    </g>
  </g>
</svg>
