<svg xmlns="http://www.w3.org/2000/svg" width="32" height="32" viewBox="0 0 32 32">
  <g id="组_2223" data-name="组 2223" transform="translate(-29 -288)">
    <g id="usd-circle" transform="translate(30 289)">
      <path id="路径_400" data-name="路径 400" d="M15,8A15,15,0,1,0,30,23,15,15,0,0,0,15,8Zm1.452,22.742v.968a.968.968,0,0,1-.968.968h-.968a.968.968,0,0,1-.968-.968v-.98a5.369,5.369,0,0,1-2.806-.913.972.972,0,0,1-.139-1.524l.726-.683a.981.981,0,0,1,1.192-.1,2.353,2.353,0,0,0,1.2.327h2.722a1.338,1.338,0,0,0,1.24-1.415,1.413,1.413,0,0,0-.919-1.373L12.4,23.726a4.316,4.316,0,0,1-2.976-4.149,4.237,4.237,0,0,1,4.125-4.319V14.29a.968.968,0,0,1,.968-.968h.968a.968.968,0,0,1,.968.968v.98a5.369,5.369,0,0,1,2.806.913.972.972,0,0,1,.139,1.524l-.726.683a.981.981,0,0,1-1.192.1,2.353,2.353,0,0,0-1.2-.327H13.554a1.338,1.338,0,0,0-1.24,1.415,1.413,1.413,0,0,0,.919,1.373l4.355,1.325a4.316,4.316,0,0,1,2.976,4.149A4.223,4.223,0,0,1,16.452,30.742Z" transform="translate(0 -8)" fill="#fcd03c" opacity="0.4"/>
      <path id="路径_401" data-name="路径 401" d="M159.925,97.936v-.968a.968.968,0,0,1,.968-.968h.968a.968.968,0,0,1,.968.968v.98a5.369,5.369,0,0,1,2.806.913.972.972,0,0,1,.139,1.524l-.726.683a.981.981,0,0,1-1.192.1,2.353,2.353,0,0,0-1.2-.327h-2.722a1.338,1.338,0,0,0-1.24,1.415,1.413,1.413,0,0,0,.919,1.373l4.355,1.325a4.316,4.316,0,0,1,2.976,4.149,4.223,4.223,0,0,1-4.113,4.319v.968a.968.968,0,0,1-.968.968h-.968a.968.968,0,0,1-.968-.968v-.98a5.369,5.369,0,0,1-2.806-.913.972.972,0,0,1-.139-1.524l.726-.683a.981.981,0,0,1,1.192-.1,2.353,2.353,0,0,0,1.2.327h2.722a1.338,1.338,0,0,0,1.24-1.415,1.414,1.414,0,0,0-.919-1.373l-4.367-1.325a4.316,4.316,0,0,1-2.976-4.149A4.237,4.237,0,0,1,159.925,97.936Z" transform="translate(-146.377 -90.677)" fill="#fcd03c"/>
    </g>
    <g id="路径_529" data-name="路径 529" transform="translate(30 281)" fill="none" opacity="0.4">
      <path d="M15,8A15,15,0,1,0,30,23,15,15,0,0,0,15,8Zm1.452,22.742v.968a.968.968,0,0,1-.968.968h-.968a.968.968,0,0,1-.968-.968v-.98a5.369,5.369,0,0,1-2.806-.913.972.972,0,0,1-.139-1.524l.726-.683a.981.981,0,0,1,1.192-.1,2.353,2.353,0,0,0,1.2.327h2.722a1.338,1.338,0,0,0,1.24-1.415,1.413,1.413,0,0,0-.919-1.373L12.4,23.726a4.316,4.316,0,0,1-2.976-4.149,4.237,4.237,0,0,1,4.125-4.319V14.29a.968.968,0,0,1,.968-.968h.968a.968.968,0,0,1,.968.968v.98a5.369,5.369,0,0,1,2.806.913.972.972,0,0,1,.139,1.524l-.726.683a.981.981,0,0,1-1.192.1,2.353,2.353,0,0,0-1.2-.327H13.554a1.338,1.338,0,0,0-1.24,1.415,1.413,1.413,0,0,0,.919,1.373l4.355,1.325a4.316,4.316,0,0,1,2.976,4.149A4.223,4.223,0,0,1,16.452,30.742Z" stroke="none"/>
      <path d="M 15.00000095367432 8 C 6.713710784912109 8 1.9073486328125e-06 14.71371078491211 1.9073486328125e-06 23 C 1.9073486328125e-06 31.28628921508789 6.713710784912109 38 15.00000095367432 38 C 23.28629112243652 38 30 31.28628921508789 30 23 C 30 14.71371078491211 23.28629112243652 8 15.00000095367432 8 M 18.03096008300781 18.6436882019043 C 17.8435173034668 18.6436882019043 17.65263748168945 18.59050369262695 17.47983169555664 18.48789978027344 C 17.11745834350586 18.27404403686523 16.70440292358398 18.16127777099609 16.28371810913086 18.16127777099609 C 16.28121376037598 18.16127777099609 16.27871704101563 18.16128158569336 16.27621078491211 18.16128921508789 L 13.55443000793457 18.16128921508789 C 12.8709602355957 18.16128921508789 12.31451034545898 18.7963695526123 12.31451034545898 19.57661056518555 C 12.31451034545898 20.21773910522461 12.69556045532227 20.78023910522461 13.23387145996094 20.9495906829834 L 17.58871078491211 22.27419090270996 C 19.34274101257324 22.80644989013672 20.56451034545898 24.5120906829834 20.56451034545898 26.42338943481445 C 20.57661056518555 28.80039978027344 18.72579956054688 30.72983932495117 16.45161056518555 30.74193954467773 L 16.45161056518555 31.70967102050781 C 16.45161056518555 32.24414825439453 16.01834106445313 32.67742156982422 15.48387050628662 32.67742156982422 L 14.51613140106201 32.67742156982422 C 13.98166084289551 32.67742156982422 13.54838180541992 32.24414825439453 13.54838180541992 31.70967102050781 L 13.54838180541992 30.72983932495117 C 12.54595184326172 30.69355964660645 11.57372093200684 30.37717056274414 10.74193000793457 29.81653022766113 C 10.21573066711426 29.45968055725098 10.13710021972656 28.72176933288574 10.60282135009766 28.29233932495117 L 11.3286304473877 27.6088695526123 C 11.50943946838379 27.4381046295166 11.73660278320313 27.35630989074707 11.96904563903809 27.3563060760498 C 12.15648651123047 27.35630416870117 12.34735488891602 27.40948677062988 12.52016067504883 27.5120906829834 C 12.88252067565918 27.72593307495117 13.29557037353516 27.83871269226074 13.71622848510742 27.83871269226074 C 13.71875953674316 27.83871269226074 13.72126007080078 27.83870887756348 13.72379112243652 27.83869934082031 L 16.44556045532227 27.83869934082031 C 17.12903213500977 27.83869934082031 17.68548202514648 27.20362091064453 17.68548202514648 26.42338943481445 C 17.68548202514648 25.78226089477539 17.3044319152832 25.21976089477539 16.76613235473633 25.05039978027344 L 12.39919090270996 23.72580909729004 C 10.64516067504883 23.19355010986328 9.423381805419922 21.48789978027344 9.423381805419922 19.57661056518555 C 9.423381805419922 17.1995906829834 11.27419090270996 15.26411056518555 13.54838180541992 15.25806045532227 L 13.54838180541992 14.29031944274902 C 13.54838180541992 13.75585174560547 13.98166084289551 13.32257843017578 14.51613140106201 13.32257843017578 L 15.48387050628662 13.32257843017578 C 16.01834106445313 13.32257843017578 16.45161056518555 13.75585174560547 16.45161056518555 14.29031944274902 L 16.45161056518555 15.27016067504883 C 17.45405197143555 15.30643081665039 18.42626953125 15.6228199005127 19.25806045532227 16.18346977233887 C 19.78427124023438 16.54031944274902 19.86289978027344 17.27821922302246 19.39717102050781 17.70766067504883 L 18.67137145996094 18.3911304473877 C 18.49055862426758 18.5618953704834 18.26340484619141 18.6436882019043 18.03096008300781 18.6436882019043 M 15.00000095367432 7 C 19.27473068237305 7 23.2929515838623 8.664020538330078 26.3144702911377 11.68553161621094 C 29.33598136901855 14.70705032348633 31 18.72526931762695 31 23 C 31 27.27473068237305 29.33598136901855 31.29294967651367 26.3144702911377 34.31446838378906 C 23.2929515838623 37.33597946166992 19.27473068237305 39 15.00000095367432 39 C 10.72527122497559 39 6.707050323486328 37.33597946166992 3.685531616210938 34.31446838378906 C 0.6640205383300781 31.29294967651367 -0.9999980926513672 27.27473068237305 -0.9999980926513672 23 C -0.9999980926513672 18.72526931762695 0.6640205383300781 14.70705032348633 3.685531616210938 11.68553161621094 C 6.707050323486328 8.664020538330078 10.72527122497559 7 15.00000095367432 7 Z M 15.45161056518555 14.32258033752441 L 14.54838085174561 14.32258033752441 L 14.54838085174561 15.25806045532227 L 14.54838085174561 16.25539970397949 L 13.55104064941406 16.25806045532227 C 11.82644081115723 16.26263999938965 10.42338180541992 17.75134086608887 10.42338180541992 19.57661056518555 C 10.42338180541992 21.05129051208496 11.35527038574219 22.36400985717773 12.68957138061523 22.76889991760254 L 17.0563907623291 24.09345054626465 L 17.06133079528809 24.09494972229004 L 17.06624984741211 24.09650039672852 C 18.01963043212891 24.39645004272461 18.68548202514648 25.35330009460449 18.68548202514648 26.42338943481445 C 18.68548202514648 27.75519943237305 17.68066024780273 28.83869934082031 16.44556045532227 28.83869934082031 L 13.72379112243652 28.83869934082031 L 13.71623039245605 28.83871078491211 C 13.11720085144043 28.83871078491211 12.52786064147949 28.67778015136719 12.01193046569824 28.37331008911133 C 12.0026798248291 28.36782073974609 11.99466514587402 28.3640308380127 11.98809814453125 28.36144828796387 L 11.31404495239258 28.99618339538574 C 11.98678970336914 29.4466724395752 12.77242660522461 29.70109939575195 13.58455085754395 29.73048973083496 L 14.54838085174561 29.765380859375 L 14.54838085174561 30.72983932495117 L 14.54838085174561 31.67741966247559 L 15.45161056518555 31.67741966247559 L 15.45161056518555 30.74193954467773 L 15.45161056518555 29.74724960327148 L 16.44629096984863 29.7419490814209 C 18.17494201660156 29.73275947570801 19.57378005981445 28.24633979797363 19.56452178955078 26.42848014831543 L 19.56451034545898 26.42593955993652 L 19.56451034545898 26.42338943481445 C 19.56451034545898 24.94870948791504 18.63262176513672 23.63599014282227 17.29833221435547 23.23110008239746 L 12.94287109375 21.90630912780762 L 12.93831062316895 21.90493011474609 L 12.93377113342285 21.90349960327148 C 11.98038101196289 21.60355949401855 11.31451034545898 20.64670944213867 11.31451034545898 19.57661056518555 C 11.31451034545898 18.24480056762695 12.3193302154541 17.16128921508789 13.55443000793457 17.16128921508789 L 16.27621078491211 17.16128921508789 L 16.28372192382813 17.16127967834473 C 16.88281059265137 17.16127967834473 17.47217178344727 17.32221984863281 17.98809051513672 17.62668991088867 C 17.9973258972168 17.63217353820801 18.00534057617188 17.63596343994141 18.01190757751465 17.63854789733887 L 18.68593978881836 17.00381469726563 C 18.01318550109863 16.55330467224121 17.22756576538086 16.29889106750488 16.41545104980469 16.26951026916504 L 15.45161056518555 16.2346305847168 L 15.45161056518555 15.27016067504883 L 15.45161056518555 14.32258033752441 Z" stroke="none" fill="#646464"/>
    </g>
  </g>
</svg>
