<svg xmlns="http://www.w3.org/2000/svg" width="36.001" height="32" viewBox="0 0 36.001 32">
  <g id="组_2221" data-name="组 2221" transform="translate(-171 -287)">
    <g id="hand-holding-usd" transform="translate(171 286)">
      <g id="组_1144" data-name="组 1144" transform="translate(0 1)">
        <path id="路径_402" data-name="路径 402" d="M35.25,323.562,25.8,331.125a4,4,0,0,1-2.5.875H1a1,1,0,0,1-1-1v-6a1,1,0,0,1,1-1H4.462l2.906-2.357A7.353,7.353,0,0,1,12,320H22a2,2,0,0,1,2,2,1.95,1.95,0,0,1-.029.341A2.074,2.074,0,0,1,21.893,324H17a1,1,0,1,0,0,2h7.392a3.977,3.977,0,0,0,2.5-.875l5.775-4.619a2.069,2.069,0,0,1,2.662,0,2,2,0,0,1-.08,3.056Z" transform="translate(0 -300)" fill="#f29838" opacity="0.4"/>
        <path id="路径_403" data-name="路径 403" d="M230.573,13.9V15a1.045,1.045,0,0,1-1.079,1h-1.078a1.045,1.045,0,0,1-1.078-1V13.894a5.174,5.174,0,0,1-2.142-.719.716.716,0,0,1-.241-.984.728.728,0,0,1,.139-.166l1.179-1.094a.885.885,0,0,1,.95-.125,1.851,1.851,0,0,0,.694.137h2.21a.549.549,0,0,0,.566-.525.536.536,0,0,0-.411-.506l-3.369-.894a3.779,3.779,0,0,1-2.891-2.981A3.584,3.584,0,0,1,227.345,2.1V1a1.044,1.044,0,0,1,1.078-1H229.5a1.044,1.044,0,0,1,1.078,1V2.106a5.183,5.183,0,0,1,2.143.719.718.718,0,0,1,.1,1.15l-1.179,1.094a.885.885,0,0,1-.95.125A1.851,1.851,0,0,0,230,5.056h-2.21a.549.549,0,0,0-.566.525.536.536,0,0,0,.411.506L231,6.981a3.779,3.779,0,0,1,2.89,2.981A3.582,3.582,0,0,1,230.573,13.9Z" transform="translate(-209.993 0)" fill="#f29838"/>
      </g>
    </g>
    <g id="hand-holding-usd-2" data-name="hand-holding-usd" transform="translate(171 286)">
      <g id="组_1144-2" data-name="组 1144" transform="translate(0 1)">
        <g id="路径_402-2" data-name="路径 402" transform="translate(0 -300)" fill="none" opacity="0.4">
          <path d="M35.25,323.562,25.8,331.125a4,4,0,0,1-2.5.875H1a1,1,0,0,1-1-1v-6a1,1,0,0,1,1-1H4.462l2.906-2.357A7.353,7.353,0,0,1,12,320H22a2,2,0,0,1,2,2,1.95,1.95,0,0,1-.029.341A2.074,2.074,0,0,1,21.893,324H17a1,1,0,1,0,0,2h7.392a3.977,3.977,0,0,0,2.5-.875l5.775-4.619a2.069,2.069,0,0,1,2.662,0,2,2,0,0,1-.08,3.056Z" stroke="none"/>
          <path d="M 11.99998092651367 320.9998779296875 L 12.00025177001953 320.9998779296875 C 10.54768180847168 321.0002746582031 9.126621246337891 321.5044860839844 7.998600006103516 322.4198608398438 L 5.092361450195313 324.7766723632813 L 4.817001342773438 324.9999694824219 L 4.462490081787109 324.9999694824219 L 1 324.9998779296875 L 1 330.9999389648438 L 23.30218124389648 330.9999389648438 C 23.97996139526367 330.9999389648438 24.64486122131348 330.7668762207031 25.17391967773438 330.3440856933594 L 34.62538146972656 322.781494140625 C 34.85596084594727 322.5970764160156 34.99263000488281 322.3219909667969 35.00036239624023 322.0267639160156 C 35.00809097290039 321.7315368652344 34.88598251342773 321.4496765136719 34.66535186767578 321.2534484863281 L 34.66176223754883 321.250244140625 L 34.65819931030273 321.2470397949219 C 34.45210266113281 321.0601501464844 34.20653915405273 321.0209350585938 34.03683090209961 321.0209350585938 C 33.77330017089844 321.0209350585938 33.50299072265625 321.1170349121094 33.29202270507813 321.2871704101563 L 27.5181999206543 325.9049682617188 C 26.63800048828125 326.611083984375 25.53201103210449 326.9999694824219 24.40396118164063 326.9999694824219 L 24.39245223999023 326.9999389648438 L 16.99996185302734 326.9999389648438 C 15.89716148376465 326.9999389648438 14.99997138977051 326.1027221679688 14.99997138977051 324.9998779296875 C 14.99997138977051 323.8971252441406 15.89716148376465 322.9999694824219 16.99996185302734 322.9999694824219 L 21.89308166503906 322.9999694824219 C 22.43024063110352 322.9999694824219 22.90945053100586 322.6388244628906 22.98404121398926 322.1777954101563 L 22.98496055603027 322.1720886230469 L 22.9859504699707 322.1663818359375 C 22.99546051025391 322.1116333007813 23.00017166137695 322.0556640625 22.99995040893555 321.9980773925781 C 22.99892044067383 321.4476623535156 22.55031967163086 320.9998779296875 21.99995040893555 320.9998779296875 L 11.99998092651367 320.9998779296875 M 11.99998092651367 319.9998779296875 L 21.99995040893555 319.9998779296875 C 23.10307121276855 319.9998779296875 23.99788093566895 320.8930053710938 23.99995040893555 321.9961853027344 C 24.00039100646973 322.1106262207031 23.99077224731445 322.2248229980469 23.97120094299316 322.3374938964844 C 23.81245040893555 323.3187255859375 22.88683128356934 323.9999694824219 21.89308166503906 323.9999694824219 L 16.99996185302734 323.9999694824219 C 16.44768142700195 323.9999694824219 15.99997138977051 324.4476013183594 15.99997138977051 324.9998779296875 C 15.99997138977051 325.5521850585938 16.44768142700195 325.9999389648438 16.99996185302734 325.9999389648438 L 24.39245223999023 325.9999389648438 C 24.39627838134766 325.9999389648438 24.4001350402832 325.9999694824219 24.40396118164063 325.9999694824219 C 25.3087272644043 325.9999694824219 26.18653678894043 325.6912536621094 26.89245223999023 325.1249389648438 L 32.66743087768555 320.5062255859375 C 33.06145858764648 320.1884460449219 33.55242919921875 320.0209350585938 34.03683090209961 320.0209350585938 C 34.50518035888672 320.0209350585938 34.96738815307617 320.1775207519531 35.32992172241211 320.5062255859375 C 35.77025985717773 320.8978576660156 36.01544189453125 321.4637756347656 36.00001907348633 322.0529174804688 C 35.98460006713867 322.6419982910156 35.71015167236328 323.1944274902344 35.24993133544922 323.5624694824219 L 25.79869079589844 331.1249084472656 C 25.08983039855957 331.6913757324219 24.2094669342041 331.9999389648438 23.30218124389648 331.9999389648438 C 23.30101585388184 331.9999389648438 23.29986572265625 331.9999389648438 23.29870223999023 331.9999389648438 L 1 331.9999389648438 C 0.4477119445800781 331.9999389648438 0 331.5521545410156 0 330.9999694824219 L 0 324.9998779296875 C 0 324.4476013183594 0.4477119445800781 323.9999694824219 1 323.9999694824219 L 4.462490081787109 323.9999694824219 L 7.368730545043945 321.6431579589844 C 8.678371429443359 320.5804138183594 10.31348037719727 320.0003356933594 11.99998092651367 319.9998779296875 Z" stroke="none" fill="#646464"/>
        </g>
        <g id="路径_403-2" data-name="路径 403" transform="translate(-209.993 0)" fill="none" opacity="0.4">
          <path d="M230.573,13.9V15a1.045,1.045,0,0,1-1.079,1h-1.078a1.045,1.045,0,0,1-1.078-1V13.894a5.174,5.174,0,0,1-2.142-.719.716.716,0,0,1-.241-.984.728.728,0,0,1,.139-.166l1.179-1.094a.885.885,0,0,1,.95-.125,1.851,1.851,0,0,0,.694.137h2.21a.549.549,0,0,0,.566-.525.536.536,0,0,0-.411-.506l-3.369-.894a3.779,3.779,0,0,1-2.891-2.981A3.584,3.584,0,0,1,227.345,2.1V1a1.044,1.044,0,0,1,1.078-1H229.5a1.044,1.044,0,0,1,1.078,1V2.106a5.183,5.183,0,0,1,2.143.719.718.718,0,0,1,.1,1.15l-1.179,1.094a.885.885,0,0,1-.95.125A1.851,1.851,0,0,0,230,5.056h-2.21a.549.549,0,0,0-.566.525.536.536,0,0,0,.411.506L231,6.981a3.779,3.779,0,0,1,2.89,2.981A3.582,3.582,0,0,1,230.573,13.9Z" stroke="none"/>
          <path d="M 229.4939422607422 14.99997520446777 C 229.5343627929688 14.99997520446777 229.5603790283203 14.98560523986816 229.5726776123047 14.97568130493164 L 229.5726776123047 13.89997482299805 L 229.5726776123047 13.00399494171143 L 230.4632873535156 12.90597438812256 C 231.2501678466797 12.81937503814697 231.9635314941406 12.43457508087158 232.4204559326172 11.85023498535156 C 232.7001342773438 11.49255466461182 233.0108489990234 10.89787483215332 232.9029998779297 10.09731483459473 C 232.7701416015625 9.120894432067871 231.9031372070313 8.256864547729492 230.7475433349609 7.947804927825928 L 227.3872528076172 7.056474208831787 C 226.7209320068359 6.890157699584961 226.2432861328125 6.297383308410645 226.2237091064453 5.609694957733154 L 226.2232971191406 5.595474720001221 L 226.2232971191406 5.581234931945801 C 226.2232971191406 4.740344524383545 226.9259185791016 4.056234836578369 227.7895812988281 4.056234836578369 L 230.002685546875 4.056234836578369 C 230.3622894287109 4.057376384735107 230.7136383056641 4.125255107879639 231.0474395751953 4.258055686950684 L 231.8672027587891 3.497828483581543 C 231.4308624267578 3.28683066368103 230.9562377929688 3.150926828384399 230.4753570556641 3.100874662399292 L 229.5789031982422 3.007544755935669 L 229.5789031982422 2.106244802474976 L 229.5789031982422 1.02400004863739 C 229.5667114257813 1.014196991920471 229.5409240722656 1.000004768371582 229.5008087158203 1.000004768371582 L 228.4226837158203 1.000004768371582 C 228.3825378417969 1.000004768371582 228.3567504882813 1.014191627502441 228.3445587158203 1.023987531661987 L 228.3445587158203 2.099994659423828 L 228.3445587158203 2.99585485458374 L 227.4540863037109 3.093974828720093 C 226.6673126220703 3.18067479133606 225.9536895751953 3.565974712371826 225.4962310791016 4.151084899902344 C 225.2165679931641 4.508774757385254 224.9058532714844 5.103234767913818 225.0135955810547 5.90309476852417 C 225.1459655761719 6.879004955291748 226.0132141113281 7.742864608764648 227.1696624755859 8.052165031433105 L 230.5298309326172 8.943466186523438 C 231.1962890625 9.109738349914551 231.6739807128906 9.702550888061523 231.6935577392578 10.39027500152588 L 231.6939697265625 10.4044942855835 L 231.6939697265625 10.41873455047607 C 231.6939697265625 11.25961494445801 230.9913177490234 11.94372463226318 230.1276550292969 11.94372463226318 L 227.9145202636719 11.94372463226318 C 227.5548858642578 11.94260215759277 227.2035369873047 11.87471866607666 226.8697662353516 11.74190616607666 L 226.0498962402344 12.50223731994629 C 226.4859771728516 12.71330261230469 226.9602966308594 12.84914588928223 227.4409790039063 12.89907455444336 L 228.337646484375 12.99222469329834 L 228.337646484375 13.89372444152832 L 228.337646484375 14.97574996948242 C 228.3498687744141 14.98564434051514 228.3756866455078 14.99997520446777 228.415771484375 14.99997520446777 L 229.4939422607422 14.99997520446777 M 229.4939422607422 15.99997520446777 L 228.415771484375 15.99997520446777 C 227.8233337402344 15.99997520446777 227.337646484375 15.54996490478516 227.337646484375 14.99997520446777 L 227.337646484375 13.89372444152832 C 226.5792846679688 13.81494426727295 225.8476867675781 13.569504737854 225.1951751708984 13.17497444152832 C 224.8571472167969 12.96972465515137 224.7493743896484 12.52933502197266 224.9545440673828 12.19122505187988 C 224.992431640625 12.12915515899658 225.0394134521484 12.0731143951416 225.0939025878906 12.02497482299805 L 226.2733001708984 10.93122482299805 C 226.4250640869141 10.79088592529297 226.6228179931641 10.72420501708984 226.8274841308594 10.72420501708984 C 226.9600677490234 10.72420501708984 227.0955352783203 10.7521800994873 227.2232971191406 10.80623435974121 C 227.4437103271484 10.89629459381104 227.6795501708984 10.94298458099365 227.9176330566406 10.94372463226318 L 230.1276550292969 10.94372463226318 C 230.4401550292969 10.94372463226318 230.6939697265625 10.70622444152832 230.6939697265625 10.41873455047607 C 230.6870727539063 10.17642498016357 230.5183868408203 9.968884468078613 230.2826690673828 9.912485122680664 L 226.9132690429688 9.018734931945801 C 225.4176940917969 8.618734359741211 224.2176361083984 7.474984645843506 224.0226745605469 6.037484645843506 C 223.7532501220703 4.037494659423828 225.3026580810547 2.324994802474976 227.3445587158203 2.099994659423828 L 227.3445587158203 0.9999947547912598 C 227.3445587158203 0.4499947428703308 227.8295135498047 4.741210887004854e-06 228.4226837158203 4.741210887004854e-06 L 229.5008087158203 4.741210887004854e-06 C 230.0939025878906 4.741210887004854e-06 230.5789031982422 0.4499947428703308 230.5789031982422 0.9999947547912598 L 230.5789031982422 2.106244802474976 C 231.3374938964844 2.185214757919312 232.0692596435547 2.430634737014771 232.7220916748047 2.824994802474976 C 232.9164276123047 2.943674802780151 233.0428924560547 3.147584676742554 233.0628204345703 3.374444723129272 C 233.0828704833984 3.601304769515991 232.9939727783203 3.824174642562866 232.8233032226563 3.974994659423828 L 231.6439056396484 5.068744659423828 C 231.4921875 5.209077835083008 231.2943878173828 5.275759696960449 231.0897369384766 5.275767803192139 C 230.9571533203125 5.275773048400879 230.8217163085938 5.247799873352051 230.6939697265625 5.193744659423828 C 230.4734649658203 5.10367488861084 230.2377471923828 5.056984901428223 229.9995422363281 5.056234836578369 L 227.7895812988281 5.056234836578369 C 227.4770355224609 5.056234836578369 227.2232971191406 5.293734550476074 227.2232971191406 5.581234931945801 C 227.2301940917969 5.823544979095459 227.3987579345703 6.031084537506104 227.634521484375 6.087484836578369 L 231.0039367675781 6.981234550476074 C 232.4996032714844 7.381234645843506 233.6982727050781 8.524984359741211 233.8938751220703 9.962484359741211 C 234.1632995605469 11.96247482299805 232.6170501708984 13.67497444152832 230.5726776123047 13.89997482299805 L 230.5726776123047 14.99997520446777 C 230.5726776123047 15.54996490478516 230.0870361328125 15.99997520446777 229.4939422607422 15.99997520446777 Z" stroke="none" fill="#646464"/>
        </g>
      </g>
    </g>
  </g>
</svg>
