<svg xmlns="http://www.w3.org/2000/svg" width="33.75" height="30" viewBox="0 0 33.75 30">
  <g id="组_2222" data-name="组 2222" transform="translate(-99 -289)">
    <g id="mail-bulk" transform="translate(99 289)">
      <path id="路径_398" data-name="路径 398" d="M16.875,225.875h-15A1.875,1.875,0,0,0,0,227.75v.938c1.5,1.125,1.312,1.125,6.75,5.063.563.375,1.687,1.5,2.625,1.5s2.063-1.125,2.625-1.313c5.437-3.937,5.25-3.937,6.75-5.062V227.75A1.875,1.875,0,0,0,16.875,225.875Zm-7.5,11.25c-1.5,0-3-1.312-3.75-1.875C1.875,232.625.75,231.687,0,231.125V239a1.875,1.875,0,0,0,1.875,1.875h15A1.875,1.875,0,0,0,18.75,239v-7.875c-.75.562-1.875,1.5-5.625,4.125C12.375,235.812,10.875,237.125,9.375,237.125ZM26.25,224v3.75H30V224Z" transform="translate(0 -210.875)" fill="#8da4ce" opacity="0.4"/>
      <path id="路径_399" data-name="路径 399" d="M92.125,9.375H73.375A1.875,1.875,0,0,0,71.5,11.25v1.875h5.625a3.755,3.755,0,0,1,3.733,3.388l.017-.013v7.875h11.25A1.875,1.875,0,0,0,94,22.5V11.25A1.875,1.875,0,0,0,92.125,9.375Zm-1.875,7.5H86.5v-3.75h3.75ZM86.5,7.5V1.875A1.875,1.875,0,0,0,84.625,0H65.875A1.875,1.875,0,0,0,64,1.875v11.25h5.625V11.25a3.754,3.754,0,0,1,3.75-3.75Z" transform="translate(-60.25 0)" fill="#8da4ce"/>
    </g>
    <g id="mail-bulk-2" data-name="mail-bulk" transform="translate(99 289)">
      <g id="路径_398-2" data-name="路径 398" transform="translate(0 -210.875)" fill="none" opacity="0.4">
        <path d="M16.875,225.875h-15A1.875,1.875,0,0,0,0,227.75v.938c1.5,1.125,1.312,1.125,6.75,5.063.563.375,1.687,1.5,2.625,1.5s2.063-1.125,2.625-1.313c5.437-3.937,5.25-3.937,6.75-5.062V227.75A1.875,1.875,0,0,0,16.875,225.875Zm-7.5,11.25c-1.5,0-3-1.312-3.75-1.875C1.875,232.625.75,231.687,0,231.125V239a1.875,1.875,0,0,0,1.875,1.875h15A1.875,1.875,0,0,0,18.75,239v-7.875c-.75.562-1.875,1.5-5.625,4.125C12.375,235.812,10.875,237.125,9.375,237.125ZM26.25,224v3.75H30V224Z" stroke="none"/>
        <path d="M 27.24997520446777 224.9999847412109 L 27.24997520446777 226.7499542236328 L 28.99996566772461 226.7499542236328 L 28.99996566772461 224.9999847412109 L 27.24997520446777 224.9999847412109 M 1.874994277954102 226.8749542236328 C 1.392515182495117 226.8749542236328 0.9999942779541016 227.2674713134766 0.9999942779541016 227.7499542236328 L 0.9999942779541016 228.1911163330078 C 1.250720977783203 228.3838043212891 1.461997985839844 228.5508270263672 1.681465148925781 228.7243194580078 C 2.490196228027344 229.3636474609375 3.496307373046875 230.1590270996094 7.32232666015625 232.9297943115234 C 7.485193252563477 233.0398712158203 7.657957077026367 233.1771087646484 7.856895446777344 233.3351440429688 C 8.230714797973633 233.6321105957031 9.008594512939453 234.2500457763672 9.374984741210938 234.2500457763672 C 9.668764114379883 234.2500457763672 10.30883407592773 233.812255859375 10.6527042388916 233.5770568847656 C 10.96323776245117 233.3646697998047 11.23862457275391 233.1763000488281 11.51385307312012 233.0548095703125 C 15.26891040802002 230.33447265625 16.26615142822266 229.5461120605469 17.06869506835938 228.9116668701172 C 17.28810691833496 228.7382202148438 17.49932861328125 228.5712280273438 17.74997520446777 228.3785858154297 L 17.74997520446777 227.7499542236328 C 17.74997520446777 227.2674713134766 17.35745429992676 226.8749542236328 16.87498474121094 226.8749542236328 L 1.874994277954102 226.8749542236328 M 0.9999942779541016 233.1483459472656 L 0.9999942779541016 239.0000152587891 C 0.9999942779541016 239.4824676513672 1.392515182495117 239.8749847412109 1.874994277954102 239.8749847412109 L 16.87498474121094 239.8749847412109 C 17.35745429992676 239.8749847412109 17.74997520446777 239.4824676513672 17.74997520446777 239.0000152587891 L 17.74997520446777 233.1483612060547 C 16.89864730834961 233.7884979248047 15.65515804290771 234.6993713378906 13.71218109130859 236.0596618652344 C 13.63405418395996 236.1184844970703 13.54766654968262 236.1855316162109 13.4538745880127 236.2582702636719 C 12.55355453491211 236.9564361572266 11.04668426513672 238.1249542236328 9.374984741210938 238.1249542236328 C 7.70329475402832 238.1249542236328 6.196434020996094 236.9564361572266 5.296104431152344 236.2582702636719 C 5.202320098876953 236.185546875 5.115949630737305 236.1184997558594 5.037818908691406 236.0596771240234 C 3.094717025756836 234.6992950439453 1.851329803466797 233.7884979248047 0.9999942779541016 233.1483459472656 M 26.24997520446777 223.9999847412109 L 29.99996566772461 223.9999847412109 L 29.99996566772461 227.7499542236328 L 26.24997520446777 227.7499542236328 L 26.24997520446777 223.9999847412109 Z M 1.874994277954102 225.8749542236328 L 16.87498474121094 225.8749542236328 C 17.91051483154297 225.8749542236328 18.74997520446777 226.7144317626953 18.74997520446777 227.7499542236328 L 18.74997520446777 228.8749847412109 C 17.24997520446777 229.9999542236328 17.43748474121094 229.9999542236328 11.99998474121094 233.9374542236328 C 11.43748474121094 234.1249542236328 10.3124942779541 235.2500457763672 9.374984741210938 235.2500457763672 C 8.437494277954102 235.2500457763672 7.312494277954102 234.1249542236328 6.749994277954102 233.7500152587891 C 1.312494277954102 229.8124542236328 1.499994277954102 229.8124542236328 -5.7220458984375e-06 228.6875152587891 L -5.7220458984375e-06 227.7499542236328 C -5.7220458984375e-06 226.7144317626953 0.8394641876220703 225.8749542236328 1.874994277954102 225.8749542236328 Z M -5.7220458984375e-06 231.1249847412109 C 0.7499942779541016 231.6874542236328 1.874994277954102 232.6250152587891 5.624994277954102 235.2500457763672 C 6.374994277954102 235.8124847412109 7.874994277954102 237.1249542236328 9.374984741210938 237.1249542236328 C 10.87498474121094 237.1249542236328 12.37498474121094 235.8124847412109 13.12498474121094 235.2500457763672 C 16.87498474121094 232.6250152587891 17.99998474121094 231.6874542236328 18.74997520446777 231.1249847412109 L 18.74997520446777 239.0000152587891 C 18.74997520446777 240.0354766845703 17.91051483154297 240.8749847412109 16.87498474121094 240.8749847412109 L 1.874994277954102 240.8749847412109 C 0.8394641876220703 240.8749847412109 -5.7220458984375e-06 240.0354766845703 -5.7220458984375e-06 239.0000152587891 L -5.7220458984375e-06 231.1249847412109 Z" stroke="none" fill="#646464"/>
      </g>
      <g id="路径_399-2" data-name="路径 399" transform="translate(-60.25 0)" fill="none" opacity="0.4">
        <path d="M92.125,9.375H73.375A1.875,1.875,0,0,0,71.5,11.25v1.875h5.625a3.755,3.755,0,0,1,3.733,3.388v1.768l.017,6.094h11.25A1.875,1.875,0,0,0,94,22.5V11.25A1.875,1.875,0,0,0,92.125,9.375Zm-1.875,7.5H86.5v-3.75h3.75ZM86.5,7.5V1.875A1.875,1.875,0,0,0,84.625,0H65.875A1.875,1.875,0,0,0,64,1.875v11.25h5.625V11.25a3.754,3.754,0,0,1,3.75-3.75Z" stroke="none"/>
        <path d="M 65.87502288818359 0.9999980926513672 C 65.39252471923828 0.9999980926513672 64.99998474121094 1.39251708984375 64.99998474121094 1.874998092651367 L 64.99998474121094 12.12498760223389 L 68.62501525878906 12.12498760223389 L 68.62501525878906 11.24889755249023 C 68.62785339355469 8.633197784423828 70.75820159912109 6.502847671508789 73.37501525878906 6.49998664855957 L 85.49996185302734 6.49998664855957 L 85.49996185302734 1.874998092651367 C 85.49996185302734 1.39251708984375 85.10744476318359 0.9999980926513672 84.62497711181641 0.9999980926513672 L 65.87502288818359 0.9999980926513672 M 73.37501525878906 10.37498760223389 C 72.89252471923828 10.37498760223389 72.49999237060547 10.76750755310059 72.49999237060547 11.24998760223389 L 72.49999237060547 12.12498760223389 L 77.12613677978516 12.12498760223389 C 79.58087158203125 12.12775802612305 81.61306762695313 13.97208786010742 81.85317230224609 16.41504669189453 L 81.85797119140625 16.46383666992188 L 81.85797119140625 16.51286697387695 L 81.85797119140625 18.27845764160156 L 81.87220001220703 23.37497711181641 L 92.12497711181641 23.37497711181641 C 92.60745239257813 23.37497711181641 92.99998474121094 22.98245811462402 92.99998474121094 22.49997711181641 L 92.99998474121094 11.24998760223389 C 92.99998474121094 10.76750755310059 92.60745239257813 10.37498760223389 92.12497711181641 10.37498760223389 L 73.37501525878906 10.37498760223389 M 91.24997711181641 17.87497711181641 L 90.24997711181641 17.87497711181641 L 86.49996185302734 17.87497711181641 L 85.49996185302734 17.87497711181641 L 85.49996185302734 16.87497711181641 L 85.49996185302734 13.12498760223389 L 85.49996185302734 12.12498760223389 L 86.49996185302734 12.12498760223389 L 90.24997711181641 12.12498760223389 L 91.24997711181641 12.12498760223389 L 91.24997711181641 13.12498760223389 L 91.24997711181641 16.87497711181641 L 91.24997711181641 17.87497711181641 M 65.87502288818359 -1.9073486328125e-06 L 84.62497711181641 -1.9073486328125e-06 C 85.66051483154297 -1.9073486328125e-06 86.49996185302734 0.8394680023193359 86.49996185302734 1.874998092651367 L 86.49996185302734 7.49998664855957 L 73.37501525878906 7.49998664855957 C 71.30486297607422 7.502246856689453 69.62726593017578 9.17985725402832 69.62501525878906 11.24998760223389 L 69.62501525878906 13.12498760223389 L 63.99998474121094 13.12498760223389 L 63.99998474121094 1.874998092651367 C 63.99998474121094 0.8394680023193359 64.83946228027344 -1.9073486328125e-06 65.87502288818359 -1.9073486328125e-06 Z M 73.37501525878906 9.374987602233887 L 92.12497711181641 9.374987602233887 C 93.16048431396484 9.374987602233887 93.99998474121094 10.21445751190186 93.99998474121094 11.24998760223389 L 93.99998474121094 22.49997711181641 C 93.99998474121094 23.53550720214844 93.16048431396484 24.37497711181641 92.12497711181641 24.37497711181641 L 80.87498474121094 24.37497711181641 L 80.85797119140625 18.28124809265137 L 80.85797119140625 16.51286697387695 C 80.66918182373047 14.59206771850586 79.05503845214844 13.12716770172119 77.12500762939453 13.12498760223389 L 71.49999237060547 13.12498760223389 L 71.49999237060547 11.24998760223389 C 71.49999237060547 10.21445751190186 72.33946228027344 9.374987602233887 73.37501525878906 9.374987602233887 Z M 90.24997711181641 16.87497711181641 L 90.24997711181641 13.12498760223389 L 86.49996185302734 13.12498760223389 L 86.49996185302734 16.87497711181641 L 90.24997711181641 16.87497711181641 Z" stroke="none" fill="#646464"/>
      </g>
    </g>
  </g>
</svg>
