<svg id="user-clock" xmlns="http://www.w3.org/2000/svg" width="50" height="40" viewBox="0 0 50 40">
  <path id="路径_540" data-name="路径 540" d="M363.25,224a11.243,11.243,0,1,0,7.957,3.293A11.25,11.25,0,0,0,363.25,224Zm5,11.742a.763.763,0,0,1-.758.758h-4.734a.763.763,0,0,1-.758-.758v-5.984a.763.763,0,0,1,.758-.758h.984a.763.763,0,0,1,.758.758V234h2.992a.763.763,0,0,1,.758.758Z" transform="translate(-324.5 -206.5)" fill="#f8d9c2"/>
  <path id="路径_541" data-name="路径 541" d="M17.5,20a10,10,0,1,0-10-10A10,10,0,0,0,17.5,20ZM25,28.75A13.7,13.7,0,0,1,26.422,22.7a10.41,10.41,0,0,0-1.922-.2H23.2a13.6,13.6,0,0,1-11.391,0H10.5A10.5,10.5,0,0,0,0,33V36.25A3.75,3.75,0,0,0,3.75,40H30.867A13.75,13.75,0,0,1,25,28.75Z" fill="#fff"/>
</svg>
