<svg xmlns="http://www.w3.org/2000/svg" width="67.503" height="60" viewBox="0 0 67.503 60">
  <g id="组_2181" data-name="组 2181" transform="translate(-243 -375)">
    <path id="路径_545" data-name="路径 545" d="M7.5,46.875A1.875,1.875,0,0,0,9.375,48.75h1.452a5.059,5.059,0,0,0,4.8-3.461l1.243-3.736,1.972,5.914a1.875,1.875,0,0,0,3.455.245l.9-1.8a1.279,1.279,0,0,1,1.172-.725,1.3,1.3,0,0,1,1.192.764,5.186,5.186,0,0,0,3.758,2.74A3.941,3.941,0,0,0,30,48.75H41.836L45,45.564V57.2A2.805,2.805,0,0,1,42.187,60H2.8A2.805,2.805,0,0,1,0,57.187V2.8A2.805,2.805,0,0,1,2.812,0H30V13.125A1.875,1.875,0,0,0,31.875,15H45V29.492L33.75,40.664s.938,3.252,0,4.336S30,45,30,45a1.363,1.363,0,0,1-1.1-.762,5.259,5.259,0,0,0-7.734-1.659L19.543,37.7a2.813,2.813,0,0,0-5.338,0L12.07,44.1a1.314,1.314,0,0,1-1.243.9H9.375A1.875,1.875,0,0,0,7.5,46.875Z" transform="translate(243 375)" fill="#fff"/>
    <path id="路径_478" data-name="路径 478" d="M7.5,46.875A1.875,1.875,0,0,0,9.375,48.75h1.452a5.059,5.059,0,0,0,4.8-3.461l1.243-3.736,1.972,5.914a1.875,1.875,0,0,0,3.455.245l.9-1.8a1.279,1.279,0,0,1,1.172-.725,1.3,1.3,0,0,1,1.192.764,5.186,5.186,0,0,0,3.758,2.74A3.941,3.941,0,0,0,30,48.75h3.813s.875-4.834-.063-3.75S30,45,30,45a1.363,1.363,0,0,1-1.1-.762,5.259,5.259,0,0,0-7.734-1.659L19.543,37.7a2.813,2.813,0,0,0-5.338,0L12.07,44.1a1.314,1.314,0,0,1-1.243.9H9.375A1.875,1.875,0,0,0,7.5,46.875Z" transform="translate(243 375)" fill="#646464"/>
    <path id="路径_479" data-name="路径 479" d="M259.75,40.664V48.75h8.086l18.946-19.076-7.955-7.955Zm32.878-21.053-3.735-3.735a2.986,2.986,0,0,0-4.219,0l-3.193,3.193,7.955,7.955,3.193-3.193a2.982,2.982,0,0,0,0-4.22Z" transform="translate(17 375)" fill="#f65d75"/>
    <path id="路径_542" data-name="路径 542" d="M271,14.285a2.8,2.8,0,0,0-.82-1.98L258.707.82A2.812,2.812,0,0,0,256.715,0H256V13.125A1.875,1.875,0,0,0,257.875,15H271Z" transform="translate(17 375)" fill="#646464"/>
  </g>
</svg>
