<svg xmlns="http://www.w3.org/2000/svg" xmlns:xlink="http://www.w3.org/1999/xlink" width="90.572" height="67.002" viewBox="0 0 90.572 67.002">
  <defs>
    <filter id="联合_18" x="0" y="0" width="90.572" height="67.002" filterUnits="userSpaceOnUse">
      <feOffset dy="2" input="SourceAlpha"/>
      <feGaussianBlur stdDeviation="2" result="blur"/>
      <feFlood flood-opacity="0.2"/>
      <feComposite operator="in" in2="blur"/>
      <feComposite in="SourceGraphic"/>
    </filter>
  </defs>
  <g id="组_2294" data-name="组 2294" transform="translate(-223.999 -426)">
    <g id="users" transform="translate(230 398)">
      <g transform="matrix(1, 0, 0, 1, -6, 28)" filter="url(#联合_18)">
        <path id="联合_18-2" data-name="联合 18" d="M10872.605-5780a5.893,5.893,0,0,1-5.892-5.9v-3.536a14.149,14.149,0,0,1,14.143-14.143h1.021a19.355,19.355,0,0,0,8.407,1.964,19.3,19.3,0,0,0,8.41-1.964h1.021a14.149,14.149,0,0,1,14.143,14.143v3.536a5.894,5.894,0,0,1-5.895,5.9Zm44.936-11.787a17.962,17.962,0,0,0-9.222-13.432,7.837,7.837,0,0,1,5.538-2.282h7.855a7.863,7.863,0,0,1,7.858,7.855v3.931a3.929,3.929,0,0,1-3.928,3.928Zm-62.613,0a3.93,3.93,0,0,1-3.929-3.928v-3.931a7.865,7.865,0,0,1,7.859-7.855h7.855a7.83,7.83,0,0,1,5.538,2.282,18,18,0,0,0-9.232,13.432Zm25.633-19.738a13.752,13.752,0,0,1-4.024-9.727,13.75,13.75,0,0,1,13.748-13.75,13.75,13.75,0,0,1,13.75,13.75,13.75,13.75,0,0,1-13.75,13.75A13.742,13.742,0,0,1,10880.561-5811.523Zm29.369-7.763a7.854,7.854,0,0,1,7.855-7.856,7.858,7.858,0,0,1,7.858,7.856,7.86,7.86,0,0,1-7.858,7.858A7.865,7.865,0,0,1,10909.93-5819.286Zm-55,0a7.857,7.857,0,0,1,7.858-7.856,7.855,7.855,0,0,1,7.855,7.856,7.857,7.857,0,0,1-7.855,7.858A7.869,7.869,0,0,1,10854.928-5819.286Z" transform="translate(-10845 5839)" fill="#fff"/>
      </g>
    </g>
    <g id="users-2" data-name="users" transform="translate(230 399)">
      <path id="路径_554" data-name="路径 554" d="M70.714,115.643H62.857a7.834,7.834,0,0,0-5.537,2.283,17.957,17.957,0,0,1,9.22,13.431h8.1a3.929,3.929,0,0,0,3.929-3.929V123.5A7.864,7.864,0,0,0,70.714,115.643Zm-3.929-3.929a7.857,7.857,0,1,0-7.857-7.857A7.857,7.857,0,0,0,66.786,111.714Z" transform="translate(0 -56.143)" fill="#f65d75"/>
      <path id="路径_555" data-name="路径 555" d="M161,63.429h-1.019a18.984,18.984,0,0,1-16.819,0h-1.019A14.147,14.147,0,0,0,128,77.571v3.536A5.893,5.893,0,0,0,133.893,87H169.25a5.893,5.893,0,0,0,5.893-5.893V77.571A14.147,14.147,0,0,0,161,63.429ZM151.571,59.5a13.743,13.743,0,1,0-9.725-4.025,13.75,13.75,0,0,0,9.725,4.025Z" transform="translate(-112.286)" fill="#fff"/>
      <path id="路径_556" data-name="路径 556" d="M11.786,111.714a7.857,7.857,0,1,0-7.857-7.857,7.857,7.857,0,0,0,7.857,7.857Zm-3.929,3.929A7.865,7.865,0,0,0,0,123.5v3.929a3.929,3.929,0,0,0,3.929,3.929h8.09a18,18,0,0,1,9.232-13.431,7.834,7.834,0,0,0-5.537-2.283Z" transform="translate(0 -56.143)" fill="#646464"/>
    </g>
  </g>
</svg>
