<svg xmlns="http://www.w3.org/2000/svg" width="33.25" height="38" viewBox="0 0 33.25 38">
  <g id="组_2182" data-name="组 2182" transform="translate(-84 -596)">
    <path id="路径_543" data-name="路径 543" d="M0,14.25V34.438A3.562,3.562,0,0,0,3.563,38H29.688a3.562,3.562,0,0,0,3.563-3.562V14.25ZM9.5,32.359a.891.891,0,0,1-.891.891H5.641a.891.891,0,0,1-.891-.891V29.391a.891.891,0,0,1,.891-.891H8.609a.891.891,0,0,1,.891.891Zm0-9.5a.891.891,0,0,1-.891.891H5.641a.891.891,0,0,1-.891-.891V19.891A.891.891,0,0,1,5.641,19H8.609a.891.891,0,0,1,.891.891Zm9.5,9.5a.891.891,0,0,1-.891.891H15.141a.891.891,0,0,1-.891-.891V29.391a.891.891,0,0,1,.891-.891h2.969a.891.891,0,0,1,.891.891Zm0-9.5a.891.891,0,0,1-.891.891H15.141a.891.891,0,0,1-.891-.891V19.891A.891.891,0,0,1,15.141,19h2.969a.891.891,0,0,1,.891.891Zm9.5,9.5a.891.891,0,0,1-.891.891H24.641a.891.891,0,0,1-.891-.891V29.391a.891.891,0,0,1,.891-.891h2.969a.891.891,0,0,1,.891.891Zm0-9.5a.891.891,0,0,1-.891.891H24.641a.891.891,0,0,1-.891-.891V19.891A.891.891,0,0,1,24.641,19h2.969a.891.891,0,0,1,.891.891ZM22.563,9.5h2.375a1.187,1.187,0,0,0,1.188-1.187V1.188A1.187,1.187,0,0,0,24.938,0H22.563a1.188,1.188,0,0,0-1.187,1.188V8.313A1.188,1.188,0,0,0,22.563,9.5Zm-14.25,0h2.375a1.187,1.187,0,0,0,1.188-1.187V1.188A1.187,1.187,0,0,0,10.688,0H8.313A1.188,1.188,0,0,0,7.125,1.188V8.313A1.187,1.187,0,0,0,8.313,9.5Z" transform="translate(84 596)" fill="#fff"/>
    <path id="路径_480" data-name="路径 480" d="M9.5,32.359a.891.891,0,0,1-.891.891H5.641a.891.891,0,0,1-.891-.891V29.391a.891.891,0,0,1,.891-.891H8.609a.891.891,0,0,1,.891.891Zm0-9.5a.891.891,0,0,1-.891.891H5.641a.891.891,0,0,1-.891-.891V19.891A.891.891,0,0,1,5.641,19H8.609a.891.891,0,0,1,.891.891Zm9.5,9.5a.891.891,0,0,1-.891.891H15.141a.891.891,0,0,1-.891-.891V29.391a.891.891,0,0,1,.891-.891h2.969a.891.891,0,0,1,.891.891Zm0-9.5a.891.891,0,0,1-.891.891H15.141a.891.891,0,0,1-.891-.891V19.891A.891.891,0,0,1,15.141,19h2.969a.891.891,0,0,1,.891.891Zm9.5,9.5a.891.891,0,0,1-.891.891H24.641a.891.891,0,0,1-.891-.891V29.391a.891.891,0,0,1,.891-.891h2.969a.891.891,0,0,1,.891.891Zm0-9.5a.891.891,0,0,1-.891.891H24.641a.891.891,0,0,1-.891-.891V19.891A.891.891,0,0,1,24.641,19h2.969a.891.891,0,0,1,.891.891Z" transform="translate(84 596)" fill="#646464"/>
    <path id="路径_481" data-name="路径 481" d="M33.25,67.563V73.5H0V67.563A3.563,3.563,0,0,1,3.563,64H7.125v3.563A1.188,1.188,0,0,0,8.313,68.75h2.375a1.188,1.188,0,0,0,1.188-1.187V64h9.5v3.563a1.188,1.188,0,0,0,1.188,1.188h2.375a1.188,1.188,0,0,0,1.188-1.187V64h3.563a3.563,3.563,0,0,1,3.563,3.563Z" transform="translate(84 536.75)" fill="#f65d75"/>
  </g>
</svg>
