<svg xmlns="http://www.w3.org/2000/svg" width="70.416" height="18" viewBox="0 0 70.416 18">
  <g id="组_305" data-name="组 305" transform="translate(-152 -53.525)">
    <g id="组_1057" data-name="组 1057">
      <g id="组_2153" data-name="组 2153" transform="translate(-523.693 -417.807)">
        <path id="路径_522" data-name="路径 522" d="M896.754,482.917h-7.078a3.358,3.358,0,0,1-.134-2.233h3.065a4.138,4.138,0,0,0-.08-1.865c-.055-.31-.3-.426-.62-.421-.711.012-1.422,0-2.2,0-.461-.638-.258-1.361-.209-2.121.228-.011.428-.029.629-.029,2.043,0,4.085,0,6.128,0,.575,0,.7-.137.695-.683-.005-.525-.112-.647-.644-.649-1.834-.007-3.668,0-5.509,0-.516-.7-.258-1.446-.311-2.225h6.157c.5-.385.174-.918.382-1.359H898.8l.119,1.348H905.4a4.239,4.239,0,0,1-.121,1.933h-6.124a1.657,1.657,0,0,0-.315,1.217.4.4,0,0,0,.44.42l.482,0h6.48a2.955,2.955,0,0,1,.072,1.71.518.518,0,0,1-.528.439c-.615.015-1.23,0-1.964,0-.589.541-.366,1.411-.591,2.246h3a3.076,3.076,0,0,1,.041,1.948h-6.847c-.732.386-.6.986-.573,1.537a.406.406,0,0,0,.431.368c.206.011.413.005.62.005h6.074a4.094,4.094,0,0,1-.19,2.141h-6.044c-.115,0-.23,0-.344,0-.477.024-.539.078-.559.579-.016.413,0,.826-.008,1.239,0,.225-.023.449-.036.7a4.175,4.175,0,0,1-1.793.009c-.2-.822.147-1.678-.27-2.486h-6.649a2.492,2.492,0,0,1-.271-2.18c.363-.008.7-.019,1.033-.021,1.811-.009,3.623,0,5.434-.03.6-.009.708-.163.659-.761A5.518,5.518,0,0,0,896.754,482.917Zm4.665-4.672h-6.853a3.05,3.05,0,0,0,.219,2.4h6.451C901.484,479.843,901.877,479.1,901.419,478.245Z" transform="translate(-187.273 0)" fill="#fff"/>
        <path id="路径_523" data-name="路径 523" d="M678.88,505.825a3.476,3.476,0,0,1-.021-1.869h1.8q3.926,0,7.853,0c.22,0,.439.03.66.046a2.555,2.555,0,0,1,.006,1.757h-4.322l-.726.641a1.423,1.423,0,0,0,.157.277,6.678,6.678,0,0,1,1.41,1.8c.1.21.326.229.535.089a11.141,11.141,0,0,1,3.522-1.512,6.557,6.557,0,0,1,2.337-.417c-.013.754.249,1.5-.275,2.161a13.825,13.825,0,0,0-4.065,1.275c-.476.232-.529.508-.136.822q1.537,1.228,3.107,2.414c.48.361,1.008.658,1.5,1a.565.565,0,0,1,.239.362c.025.591.011,1.185.011,1.79a.925.925,0,0,1-.848-.156c-.557-.41-1.227-.665-1.8-1.057-.672-.46-1.3-.991-1.929-1.5-.458-.371-.9-.765-1.341-1.145-.346.183-.3.515-.357.794-.138.672-.212,1.362-.412,2.015a3.261,3.261,0,0,1-.7,1.291,2.744,2.744,0,0,1-2.061.758c-.8-.008-1.6-.075-2.429-.117a1.114,1.114,0,0,1-.282-.862,4.086,4.086,0,0,0,0-.413c-.012-.583-.286-.771-.842-.566-.3.11-.579.258-.879.357-.9.3-1.8.576-2.758.882a7.6,7.6,0,0,1-.109-2.324c.789-.222,1.552-.425,2.308-.653a13.044,13.044,0,0,0,5.768-3.328,2.092,2.092,0,0,0,.294-.376c.135-.225.053-.39-.22-.509a1.218,1.218,0,0,0-.313.193,7.564,7.564,0,0,1-1.782,1.362,10.923,10.923,0,0,1-2.987,1.329c-.631.159-1.237.415-1.859.61-.36.113-.73.19-1.121.29a8.172,8.172,0,0,1-.1-2.227c.814-.254,1.567-.392,2.3-.6a12.958,12.958,0,0,0,2.184-.887,4.331,4.331,0,0,0,1.876-1.344c-.688-.176-1.09.3-1.59.409s-.99.4-1.5.564-1.047.278-1.571.415-1.038.274-1.6.423a9.035,9.035,0,0,1-.119-2.333,3.91,3.91,0,0,1,.389-.043,11.711,11.711,0,0,0,3.83-.913,3.547,3.547,0,0,0,1.413-.973Zm1.941,9.616c.547.044,1.109.112,1.673.13a1.471,1.471,0,0,0,1.684-1.171,2.238,2.238,0,0,0,.018-1.687c-.15.1-.259.175-.363.253-.5.376-.993.775-1.515,1.123-.409.272-.858.486-1.293.719C680.818,514.917,680.708,515.062,680.821,515.441Z" transform="translate(0 -28.129)" fill="#fff"/>
        <path id="路径_524" data-name="路径 524" d="M1109.456,484.136c-.465-.368-.92-.734-1.384-1.089a1.043,1.043,0,0,0-.285-.112c-.316.212-.24.509-.241.774,0,1.881,0,3.762,0,5.643,0,.248,0,.5,0,.767a6.062,6.062,0,0,1-1.725.086c-.031-.318-.082-.6-.083-.89-.007-1.812,0-3.624-.006-5.437,0-.263-.05-.527-.086-.875-1,.305-1.473,1.253-2.359,1.553-.241-.282-.177-.631-.225-.963a2.378,2.378,0,0,1,1.119-2.466,12.861,12.861,0,0,0,3.259-3.346,3.831,3.831,0,0,0,.366-.656c.251-.654-.028-1.091-.734-1.109-.963-.025-1.926-.006-2.89-.006h-.4a3.328,3.328,0,0,1-.259-2.067h1.94c.339-.321.255-.654.27-.967.02-.43.105-.515.531-.526q.447-.011.895,0c.52.016.58.086.6.6.013.265.055.528.082.779.463.173.909.026,1.284.361a2.168,2.168,0,0,1,.845,1.615,6.47,6.47,0,0,1-1.377,3.924c-.1.151-.214.295-.315.446a.427.427,0,0,0,.138.638c.053.042.113.077.161.124q.512.49,1.02.983c-.011.685-.02,1.369-.038,2.054C1109.556,484.033,1109.488,484.088,1109.456,484.136Z" transform="translate(-374.455 -0.959)" fill="#fff"/>
        <path id="路径_525" data-name="路径 525" d="M677.823,479.577a3.019,3.019,0,0,1-.209-.748c-.023-1.262-.014-2.525-.011-3.788a1.8,1.8,0,0,1,.079-.336H684.4l.215-1.347h1.762l.235,1.3c.272.016.473.038.674.039,1.515.008,3.031-.014,4.545.026a2.03,2.03,0,0,1,1.844,1.094,1.383,1.383,0,0,1,.2.646c-.025.777-.068,1.556-.161,2.327a3.893,3.893,0,0,1-.349.9h-1.382a1.358,1.358,0,0,1-.128-1.294,2.857,2.857,0,0,0,.153-.667.857.857,0,0,0-.936-1.054c-1.423-.01-2.847-.005-4.27-.006q-3.272,0-6.543,0c-.749,0-.82.074-.829.827-.006.436.01.873,0,1.309-.02.64-.149.762-.769.767C678.422,479.579,678.192,479.577,677.823,479.577Z" transform="translate(-1.643 -1.748)" fill="#fff"/>
        <path id="路径_526" data-name="路径 526" d="M1157.529,548.33a5.041,5.041,0,0,1-.145-.825c-.011-2.177-.009-4.355-.006-6.532,0-.7.07-.766.8-.768,1.88,0,3.76.037,5.638-.014a3.014,3.014,0,0,1,2.939,1.594,4.764,4.764,0,0,1,.648,2.052,5.1,5.1,0,0,1-.322,2.336,3.615,3.615,0,0,1-1.758,1.912,2.435,2.435,0,0,1-1.215.243C1161.958,548.332,1159.806,548.33,1157.529,548.33Zm7.045-6.847a1.6,1.6,0,0,0-1.785.7c-.047.071-.141.11-.207.171-.286.27-.445.268-.729.023-.317-.274-.649-.53-.972-.8a.844.844,0,0,0-.953-.078,2.159,2.159,0,0,0-1.094,1.476,2.763,2.763,0,0,0,1.036,2.8,8.077,8.077,0,0,0,1.787,1.059,2.088,2.088,0,0,0,1.2-.02,3.446,3.446,0,0,0,1.039-.514,4.369,4.369,0,0,0,1.32-1.251,2.2,2.2,0,0,0,.2-2.555A9.548,9.548,0,0,0,1164.574,541.483Z" transform="translate(-421.317 -59.369)" fill="#fff"/>
        <path id="路径_527" data-name="路径 527" d="M1160.427,498.866a3.765,3.765,0,0,1-.14-.688c-.012-1.535-.008-3.071-.005-4.606a4.211,4.211,0,0,1,.051-.445c.195-.012.37-.033.545-.033,1.857,0,3.715-.054,5.568.015a2.633,2.633,0,0,1,2.766,2.792,2.715,2.715,0,0,1-.749,2.119,2.752,2.752,0,0,1-1.952.854C1164.52,498.852,1162.526,498.866,1160.427,498.866Zm6.389-3.877c-1.183,0-2.375-.007-3.567,0-1.087.009-1.274-.29-1.243,1.227.007.336-.071.7.308.971,1.146,0,2.337-.005,3.527,0a2.017,2.017,0,0,0,.979-.22.95.95,0,0,0,.367-1.549C1167.082,495.309,1166.984,495.186,1166.816,494.989Z" transform="translate(-423.821 -18.744)" fill="#fff"/>
        <path id="路径_528" data-name="路径 528" d="M1155.973,475.26h9.78a1.619,1.619,0,0,1-.127,1.883h-9.418C1155.747,476.57,1155.99,475.935,1155.973,475.26Z" transform="translate(-420.065 -3.387)" fill="#fff"/>
      </g>
    </g>
  </g>
</svg>
