<svg xmlns="http://www.w3.org/2000/svg" width="50" height="66.667" viewBox="0 0 50 66.667">
  <g id="组_2178" data-name="组 2178" transform="translate(-242 -483)">
    <g id="clipboard-list-check" transform="translate(242 483)">
      <path id="路径_546" data-name="路径 546" d="M41.667,104.625a1.042,1.042,0,0,1-1.042,1.042H21.875a1.042,1.042,0,0,1-1.042-1.042v-2.083a1.042,1.042,0,0,1,1.042-1.042h18.75a1.042,1.042,0,0,1,1.042,1.042Zm0-12.5a1.162,1.162,0,0,1-1.25,1.042H20.065L24.271,89H40.417a1.162,1.162,0,0,1,1.25,1.042Z" transform="translate(0 -55.667)" fill="#646464"/>
      <path id="路径_547" data-name="路径 547" d="M89,8.333a8.333,8.333,0,1,0-16.667,0A8.333,8.333,0,0,0,64,16.667H97.333A8.333,8.333,0,0,0,89,8.333Zm-8.333,3.125a3.117,3.117,0,1,1,2.212-.913A3.125,3.125,0,0,1,80.667,11.458Z" transform="translate(-55.667)" fill="#646464"/>
      <path id="路径_549" data-name="路径 549" d="M68.167,44.792a3.117,3.117,0,1,0,2.212.913,3.125,3.125,0,0,0-2.212-.913Zm8.555-18.438a.7.7,0,0,0-.99,0l-6.2,6.146-2.682-2.708a.7.7,0,0,0-.99,0l-1.654,1.641a.7.7,0,0,0,0,.99l4.8,4.857a.7.7,0,0,0,.99,0L78.362,29a.7.7,0,0,0,0-.99Z" transform="translate(-55.667)" fill="#f65d75"/>
    </g>
    <path id="路径_548" data-name="路径 548" d="M43.75,64H33.333a8.333,8.333,0,0,1,8.333,8.333H8.333A8.333,8.333,0,0,1,16.667,64H6.25A6.25,6.25,0,0,0,0,70.25v45.833a6.25,6.25,0,0,0,6.25,6.25h37.5a6.25,6.25,0,0,0,6.25-6.25V70.25A6.25,6.25,0,0,0,43.75,64ZM8.542,87.1,10.2,85.458a.7.7,0,0,1,.99,0l2.682,2.708,6.2-6.146a.7.7,0,0,1,.99,0L22.7,83.674a.7.7,0,0,1,0,.99l-8.359,8.281a.7.7,0,0,1-.99,0l-4.8-4.857a.7.7,0,0,1,0-.99ZM12.5,106.708a3.117,3.117,0,1,1,2.212-.913A3.125,3.125,0,0,1,12.5,106.708Zm29.167-2.083a1.042,1.042,0,0,1-1.042,1.042H21.875a1.042,1.042,0,0,1-1.042-1.042v-2.083a1.042,1.042,0,0,1,1.042-1.042h18.75a1.042,1.042,0,0,1,1.042,1.042Zm0-12.5a1.162,1.162,0,0,1-1.25,1.042H20.065L24.271,89H40.417a1.162,1.162,0,0,1,1.25,1.042Z" transform="translate(242 427.333)" fill="#fff"/>
  </g>
</svg>
